<svg version="1.1" id="Layer_1" xmlns="http://www.w3.org/2000/svg" xmlns:xlink="http://www.w3.org/1999/xlink" x="0px" y="0px"
	 width="100%" viewBox="0 0 640 640" enable-background="new 0 0 640 640" xml:space="preserve">
<path fill="#FFFFFF" opacity="1.000000" stroke="none" 
	d="
M437.000000,641.000000 
	C291.333374,641.000000 146.166718,641.000000 1.000058,641.000000 
	C1.000039,427.666718 1.000039,214.333466 1.000020,1.000144 
	C214.333237,1.000096 427.666473,1.000096 640.999756,1.000048 
	C640.999878,214.333191 640.999878,427.666382 640.999939,640.999756 
	C573.166687,641.000000 505.333344,641.000000 437.000000,641.000000 
M404.000000,183.000000 
	C404.000000,183.000000 403.988464,182.990555 403.278229,182.944061 
	C402.542206,183.655365 401.806213,184.366669 401.000000,185.000000 
	C401.000000,185.000000 401.072571,185.075821 400.257141,185.022156 
	C393.937408,185.494537 386.982056,191.188446 386.206879,196.779221 
	C386.206879,196.779221 385.936310,196.997375 385.158569,197.171295 
	C384.798248,199.036942 384.128754,200.901794 384.124023,202.768341 
	C384.056091,229.707123 384.046478,256.646240 384.112732,283.585022 
	C384.122101,287.394043 384.119537,290.792023 379.705353,292.530151 
	C378.711548,292.921478 378.497314,295.292450 377.376953,297.179108 
	C373.619904,299.870331 369.865631,302.565460 366.105347,305.252136 
	C353.082306,314.557007 340.057190,323.858948 326.387451,333.262970 
	C324.862701,334.439484 323.337952,335.616028 321.293243,336.862854 
	C321.075104,337.123077 320.856964,337.383331 319.965820,337.795563 
	C309.807465,345.035889 299.649139,352.276215 288.835510,359.714722 
	C286.134003,361.580048 283.432526,363.445404 280.731018,365.310760 
	C280.810181,365.671539 280.889313,366.032318 280.968445,366.393097 
	C282.695190,366.393097 284.421936,366.393250 286.148682,366.393097 
	C317.288330,366.390778 348.428619,366.484772 379.566986,366.283722 
	C384.321228,366.253052 385.749939,367.540497 385.730316,372.377045 
	C385.549805,416.837402 385.616333,461.298767 385.610962,505.759857 
	C385.610718,507.879944 385.610962,510.000031 385.610962,513.116943 
	C400.599640,501.910889 414.672974,491.389160 429.315430,480.801910 
	C429.530151,480.502747 429.744873,480.203613 430.228088,479.489746 
	C430.474915,479.251984 430.768524,479.113190 431.703186,479.350586 
	C433.031708,479.001862 434.582642,478.977142 435.648285,478.245514 
	C439.257721,475.767426 442.848663,473.213104 446.126312,470.324371 
	C447.520355,469.095703 448.121063,466.966827 449.299652,464.849609 
	C449.299652,464.849609 449.443604,464.420074 449.975494,464.314575 
	C450.311127,464.187866 450.646790,464.061157 451.393097,464.476349 
	C456.277191,464.981964 457.421844,461.240723 459.012268,457.964355 
	C459.012268,457.964355 458.882507,457.890350 459.658875,457.964722 
	C466.389404,456.644958 471.108459,452.870544 473.723694,446.169708 
	C473.723694,446.169708 473.966888,445.979889 474.586975,445.525543 
	C475.040192,442.770874 475.887573,440.016479 475.889587,437.261505 
	C475.959656,341.670532 475.949982,246.079544 475.951477,150.488556 
	C475.951538,147.046066 475.432678,143.501450 476.087738,140.188736 
	C476.794922,136.612396 476.089081,133.806747 473.898560,131.089050 
	C473.898560,131.089050 473.881989,131.031265 473.644440,130.424057 
	C472.748047,130.059616 471.385956,129.122635 471.024872,129.416336 
	C465.270355,134.096817 459.640015,138.930206 454.003754,143.754959 
	C453.799835,143.929535 453.825806,144.372711 453.051544,144.874146 
	C451.946869,145.832504 450.842224,146.790878 449.359772,148.030502 
	C449.105133,148.222382 448.895081,148.454590 447.975159,148.855255 
	C442.073090,150.001587 438.155792,154.099747 434.257935,158.181396 
	C433.904968,158.550995 434.105927,159.449554 433.985840,160.486710 
	C433.985840,160.486710 433.884033,160.862686 433.405670,160.875992 
	C433.405670,160.875992 432.936493,160.971115 432.140808,160.955215 
	C430.612091,161.373077 428.835449,161.430344 427.602417,162.278214 
	C424.260132,164.576492 421.025055,167.069824 417.978271,169.748337 
	C414.559998,172.753433 411.394623,176.046234 407.865692,179.738144 
	C407.435791,180.362473 407.005890,180.986801 406.064789,181.674057 
	C405.748688,181.803040 405.432617,181.932037 404.576111,182.121750 
	C404.381439,182.410416 404.186768,182.699097 404.000000,183.000000 
M168.802673,387.499908 
	C168.802673,429.000580 168.802673,470.501282 168.802673,512.916870 
	C198.195877,490.612061 226.583084,469.127258 254.829605,447.459076 
	C256.161865,446.437103 256.813690,443.787476 256.822113,441.891602 
	C256.946014,414.060181 257.039246,386.226837 256.781189,358.397247 
	C256.735840,353.506836 258.202789,350.625946 262.211304,347.834991 
	C294.451111,325.387421 326.525238,302.701904 358.639954,280.074860 
	C359.731079,279.306091 360.715637,278.385986 362.682281,276.770508 
	C326.652130,276.770508 291.912048,276.770508 256.744507,276.770508 
	C256.744507,228.024261 256.744507,179.652527 256.744507,130.641098 
	C254.966171,131.867065 253.735611,132.645477 252.579819,133.522446 
	C226.060501,153.644241 199.592377,173.834061 172.979477,193.831223 
	C169.831665,196.196533 168.711426,198.629089 168.718887,202.509064 
	C168.836868,263.839172 168.802292,325.169556 168.802673,387.499908 
z"/>
<path fill="#010101" opacity="1.000000" stroke="none" 
	d="
M168.802673,386.999878 
	C168.802292,325.169556 168.836868,263.839172 168.718887,202.509064 
	C168.711426,198.629089 169.831665,196.196533 172.979477,193.831223 
	C199.592377,173.834061 226.060501,153.644241 252.579819,133.522446 
	C253.735611,132.645477 254.966171,131.867065 256.744507,130.641098 
	C256.744507,179.652527 256.744507,228.024261 256.744507,276.770508 
	C291.912048,276.770508 326.652130,276.770508 362.682281,276.770508 
	C360.715637,278.385986 359.731079,279.306091 358.639954,280.074860 
	C326.525238,302.701904 294.451111,325.387421 262.211304,347.834991 
	C258.202789,350.625946 256.735840,353.506836 256.781189,358.397247 
	C257.039246,386.226837 256.946014,414.060181 256.822113,441.891602 
	C256.813690,443.787476 256.161865,446.437103 254.829605,447.459076 
	C226.583084,469.127258 198.195877,490.612061 168.802673,512.916870 
	C168.802673,470.501282 168.802673,429.000580 168.802673,386.999878 
z"/>
<path fill="#D41F22" opacity="1.000000" stroke="none" 
	d="
M431.108948,479.073364 
	C430.768524,479.113190 430.474915,479.251984 429.810486,479.730347 
	C429.177368,480.269806 428.961823,480.568634 428.746277,480.867462 
	C414.672974,491.389160 400.599640,501.910889 385.610962,513.116943 
	C385.610962,510.000031 385.610718,507.879944 385.610962,505.759857 
	C385.616333,461.298767 385.549805,416.837402 385.730316,372.377045 
	C385.749939,367.540497 384.321228,366.253052 379.566986,366.283722 
	C348.428619,366.484772 317.288330,366.390778 286.148682,366.393097 
	C284.421936,366.393250 282.695190,366.393097 280.968445,366.393097 
	C280.889313,366.032318 280.810181,365.671539 280.731018,365.310760 
	C283.432526,363.445404 286.134003,361.580048 289.303040,359.754578 
	C289.770569,359.794464 290.052551,360.070190 289.899933,360.327606 
	C289.162994,361.389862 288.578705,362.194702 287.759521,363.168701 
	C288.027863,363.863770 288.531067,364.389618 289.500366,364.935730 
	C321.637695,364.953949 353.308990,364.951904 385.344604,365.016113 
	C386.475372,366.722168 387.241852,368.361969 388.002136,370.470276 
	C387.993958,413.627289 387.991974,456.315796 387.981232,499.336121 
	C387.980804,500.110413 387.989166,500.552887 387.994263,501.396484 
	C387.991028,502.867371 387.991058,503.937164 388.038940,505.353149 
	C389.400940,505.810120 390.715088,505.920868 392.340149,505.872711 
	C393.984558,503.692657 395.318024,501.671448 396.475433,499.917145 
	C398.297089,499.546204 400.341614,499.716919 401.540375,498.791748 
	C410.189331,492.116852 418.547943,485.063080 427.249969,478.460754 
	C431.510956,475.227936 436.309418,472.703491 440.990143,469.999298 
	C441.115662,470.140167 441.363312,470.424927 441.172058,470.699219 
	C437.690186,473.673462 434.399567,476.373413 431.108948,479.073364 
z"/>
<path fill="#D41F22" opacity="1.000000" stroke="none" 
	d="
M473.966888,445.979889 
	C473.966888,445.979889 473.723694,446.169708 473.382812,446.459320 
	C468.322083,450.462738 463.602295,454.176544 458.882507,457.890350 
	C458.882507,457.890350 459.012268,457.964355 458.677338,457.955231 
	C457.992950,458.063995 457.643524,458.181885 457.179138,458.182129 
	C457.064178,458.064484 456.834869,457.828613 456.935120,457.509399 
	C459.562958,454.865601 462.177185,452.626953 464.592773,450.191284 
	C466.843781,447.921631 469.806366,445.766357 470.786316,442.974731 
	C472.059387,439.348175 471.969971,435.142395 471.972290,431.185577 
	C472.027405,337.088593 472.028931,242.991592 471.974426,148.894608 
	C471.971985,144.683441 471.350952,140.472626 471.032593,136.445557 
	C468.201691,137.030457 466.494507,137.383179 464.927368,137.428406 
	C468.005585,135.091034 470.943787,133.061157 473.881989,131.031265 
	C473.881989,131.031265 473.898560,131.089050 473.885406,131.559219 
	C473.893219,135.361832 473.932037,138.694290 473.932495,142.026733 
	C473.946259,243.344452 473.956299,344.662170 473.966888,445.979889 
z"/>
<path fill="#FED9D2" opacity="1.000000" stroke="none" 
	d="
M474.276917,445.752716 
	C473.956299,344.662170 473.946259,243.344452 473.932495,142.026733 
	C473.932037,138.694290 473.893219,135.361832 473.912048,131.573120 
	C476.089081,133.806747 476.794922,136.612396 476.087738,140.188736 
	C475.432678,143.501450 475.951538,147.046066 475.951477,150.488556 
	C475.949982,246.079544 475.959656,341.670532 475.889587,437.261505 
	C475.887573,440.016479 475.040192,442.770874 474.276917,445.752716 
z"/>
<path fill="#DE171A" opacity="1.000000" stroke="none" 
	d="
M327.032867,333.161987 
	C340.057190,323.858948 353.082306,314.557007 366.105347,305.252136 
	C369.865631,302.565460 373.619904,299.870331 377.985443,296.917419 
	C384.603058,293.884399 386.139557,289.307312 386.051422,282.721954 
	C385.669189,254.151688 385.917358,225.572998 385.936340,196.997375 
	C385.936310,196.997375 386.206879,196.779221 386.594421,196.534637 
	C391.678802,192.551956 396.375702,188.813889 401.072571,185.075821 
	C401.072571,185.075821 401.000000,185.000000 401.351135,185.010117 
	C402.464294,184.343674 403.226379,183.667114 403.988464,182.990555 
	C403.988464,182.990555 404.000000,183.000000 404.270020,182.969757 
	C404.732178,182.646683 404.924347,182.353851 405.116516,182.061005 
	C405.432617,181.932037 405.748688,181.803040 406.473999,181.785553 
	C406.883240,181.897049 407.185120,182.186661 407.084839,182.506897 
	C403.263489,186.051056 399.652679,189.414703 395.791779,192.461487 
	C391.530090,195.824570 388.705688,199.236664 388.807007,205.445755 
	C389.222046,230.890244 388.867645,256.346252 389.049286,281.796234 
	C389.099579,288.841949 389.304688,294.311829 380.778229,298.087494 
	C372.187897,301.891449 365.255859,309.354797 357.409149,314.951111 
	C351.416229,319.225281 344.932312,322.826904 339.071075,327.261963 
	C336.716888,329.043335 331.525330,329.773682 333.994537,335.005341 
	C333.999420,335.000580 334.006348,334.990570 333.615234,334.976532 
	C331.197510,334.689941 329.170837,334.417358 327.116333,333.899078 
	C327.088440,333.653381 327.032867,333.162018 327.032867,333.161987 
z"/>
<path fill="#FECECA" opacity="1.000000" stroke="none" 
	d="
M385.547455,197.084335 
	C385.917358,225.572998 385.669189,254.151688 386.051422,282.721954 
	C386.139557,289.307312 384.603058,293.884399 378.259064,296.703918 
	C378.497314,295.292450 378.711548,292.921478 379.705353,292.530151 
	C384.119537,290.792023 384.122101,287.394043 384.112732,283.585022 
	C384.046478,256.646240 384.056091,229.707123 384.124023,202.768341 
	C384.128754,200.901794 384.798248,199.036942 385.547455,197.084335 
z"/>
<path fill="#D41F22" opacity="1.000000" stroke="none" 
	d="
M289.630676,359.655518 
	C299.649139,352.276215 309.807465,345.035889 320.419312,337.832672 
	C320.872772,337.869781 321.112579,338.089813 321.065369,338.444153 
	C320.519562,339.582733 320.196045,340.611023 319.495392,341.113464 
	C312.461060,346.158386 305.434937,351.221527 298.247772,356.042938 
	C295.742767,357.723389 292.797028,358.746765 290.052551,360.070190 
	C290.052551,360.070190 289.770569,359.794464 289.630676,359.655518 
z"/>
<path fill="#FED9D2" opacity="1.000000" stroke="none" 
	d="
M408.119202,179.213867 
	C411.394623,176.046234 414.559998,172.753433 417.978271,169.748337 
	C421.025055,167.069824 424.260132,164.576492 427.602417,162.278214 
	C428.835449,161.430344 430.612091,161.373077 432.522034,161.196472 
	C432.903259,161.437744 432.883728,161.904984 432.902710,161.917694 
	C432.921722,161.930405 432.918365,161.888153 432.593536,161.969772 
	C430.417664,163.592697 428.566620,165.134003 426.809784,166.771713 
	C426.903992,166.868103 426.760803,166.639709 426.456573,166.670624 
	C425.737305,167.113434 425.322235,167.525330 424.946289,167.963287 
	C424.985352,167.989349 424.941620,167.906219 424.619873,167.965607 
	C423.039062,169.119110 421.779938,170.213211 420.471985,171.363708 
	C420.423096,171.420090 420.285919,171.478851 419.976562,171.559845 
	C416.452332,174.145859 413.237488,176.650848 409.706268,179.188004 
	C408.966339,179.218079 408.542786,179.215973 408.119202,179.213867 
z"/>
<path fill="#FED9D2" opacity="1.000000" stroke="none" 
	d="
M473.763214,130.727661 
	C470.943787,133.061157 468.005585,135.091034 464.946411,137.436096 
	C464.825409,137.751266 464.798492,137.763977 464.466675,137.836838 
	C461.703186,139.892593 459.271484,141.875504 456.887329,143.895599 
	C456.934875,143.932785 456.899292,143.817459 456.619263,143.845840 
	C456.128265,144.162155 455.917267,144.450104 455.822693,144.739349 
	C455.939117,144.740631 455.711975,144.689316 455.427979,144.721481 
	C454.778870,144.855911 454.413757,144.958176 453.971436,144.968994 
	C453.894226,144.877563 453.744659,144.690704 453.744629,144.690704 
	C453.825806,144.372711 453.799835,143.929535 454.003754,143.754959 
	C459.640015,138.930206 465.270355,134.096817 471.024872,129.416336 
	C471.385956,129.122635 472.748047,130.059616 473.763214,130.727661 
z"/>
<path fill="#FED9D2" opacity="1.000000" stroke="none" 
	d="
M431.406067,479.211975 
	C434.399567,476.373413 437.690186,473.673462 441.488220,470.585815 
	C444.357880,468.547760 446.720062,466.897400 449.082275,465.247040 
	C448.121063,466.966827 447.520355,469.095703 446.126312,470.324371 
	C442.848663,473.213104 439.257721,475.767426 435.648285,478.245514 
	C434.582642,478.977142 433.031708,479.001862 431.406067,479.211975 
z"/>
<path fill="#FECECA" opacity="1.000000" stroke="none" 
	d="
M400.664856,185.048981 
	C396.375702,188.813889 391.678802,192.551956 386.642609,196.367676 
	C386.982056,191.188446 393.937408,185.494537 400.664856,185.048981 
z"/>
<path fill="#FED9D2" opacity="1.000000" stroke="none" 
	d="
M459.270691,457.927551 
	C463.602295,454.176544 468.322083,450.462738 473.360748,446.612000 
	C471.108459,452.870544 466.389404,456.644958 459.270691,457.927551 
z"/>
<path fill="#FED9D2" opacity="1.000000" stroke="none" 
	d="
M434.049652,160.102478 
	C434.105927,159.449554 433.904968,158.550995 434.257935,158.181396 
	C438.155792,154.099747 442.073090,150.001587 448.414368,148.852325 
	C448.853577,148.849411 448.974060,148.975037 448.895630,149.194183 
	C448.817230,149.413315 448.829529,149.878723 448.885681,149.917938 
	C448.941803,149.957138 448.874176,149.838058 448.540436,149.912964 
	C445.389404,152.240067 442.572083,154.492264 439.747253,156.754196 
	C439.739746,156.763931 439.719940,156.737091 439.395233,156.817307 
	C437.396912,157.965836 435.723297,159.034164 434.049652,160.102478 
z"/>
<path fill="#FED9D2" opacity="1.000000" stroke="none" 
	d="
M457.294067,458.299805 
	C457.643524,458.181885 457.992950,458.063995 458.618256,457.908813 
	C457.421844,461.240723 456.277191,464.981964 451.322632,463.907104 
	C453.266113,461.658478 455.280090,459.979126 457.294067,458.299805 
z"/>
<path fill="#D41F22" opacity="1.000000" stroke="none" 
	d="
M457.179108,458.182129 
	C455.280090,459.979126 453.266113,461.658478 451.117310,463.636169 
	C450.646790,464.061157 450.311127,464.187866 449.565308,464.229614 
	C449.155121,464.144684 448.867249,463.869049 448.918213,463.494080 
	C449.720337,458.574219 454.068512,459.377319 456.834869,457.828613 
	C456.834869,457.828613 457.064178,458.064484 457.179108,458.182129 
z"/>
<path fill="#D41F22" opacity="1.000000" stroke="none" 
	d="
M449.190979,465.048340 
	C446.720062,466.897400 444.357880,468.547760 441.679504,470.311523 
	C441.363312,470.424927 441.115662,470.140167 441.083191,469.673340 
	C443.656250,467.427338 446.261749,465.648193 448.867249,463.869049 
	C448.867249,463.869049 449.155121,464.144684 449.299377,464.282379 
	C449.443604,464.420074 449.299652,464.849609 449.190979,465.048340 
z"/>
<path fill="#D41F22" opacity="1.000000" stroke="none" 
	d="
M434.017761,160.294601 
	C435.723297,159.034164 437.396912,157.965836 439.454010,157.187164 
	C437.957733,158.741104 436.077972,160.005432 434.120789,161.167099 
	C434.043396,161.064453 433.884033,160.862686 433.884033,160.862686 
	C433.884033,160.862686 433.985840,160.486710 434.017761,160.294601 
z"/>
<path fill="#D41F22" opacity="1.000000" stroke="none" 
	d="
M326.710144,333.212494 
	C327.032867,333.162018 327.088440,333.653381 327.061676,334.109985 
	C327.034912,334.566620 326.962646,334.998322 326.751373,335.102539 
	C326.275726,335.397736 326.094452,335.648773 325.691040,336.110657 
	C324.316406,336.586548 323.247009,336.911652 322.087738,337.124695 
	C321.997894,337.012634 321.813232,336.792572 321.813232,336.792542 
	C323.337952,335.616028 324.862701,334.439484 326.710144,333.212494 
z"/>
<path fill="#FED9D2" opacity="1.000000" stroke="none" 
	d="
M449.737549,147.749237 
	C450.842224,146.790878 451.946869,145.832504 453.398102,144.782425 
	C453.744659,144.690704 453.894226,144.877563 453.798645,145.233459 
	C452.490143,146.415207 451.277252,147.241043 449.982697,147.987396 
	C449.901031,147.907944 449.737549,147.749237 449.737549,147.749237 
z"/>
<path fill="#DE171A" opacity="1.000000" stroke="none" 
	d="
M407.992432,179.476013 
	C408.542786,179.215973 408.966339,179.218079 409.703613,179.444351 
	C410.030884,179.838959 410.044434,180.009369 409.893188,180.435715 
	C408.880585,181.189972 408.032837,181.688309 407.185120,182.186646 
	C407.185120,182.186661 406.883240,181.897049 406.729614,181.754089 
	C407.005890,180.986801 407.435791,180.362473 407.992432,179.476013 
z"/>
<path fill="#FECECA" opacity="1.000000" stroke="none" 
	d="
M403.633362,182.967316 
	C403.226379,183.667114 402.464294,184.343674 401.386230,185.049103 
	C401.806213,184.366669 402.542206,183.655365 403.633362,182.967316 
z"/>
<path fill="#D41F22" opacity="1.000000" stroke="none" 
	d="
M320.755798,337.756653 
	C320.856964,337.383331 321.075104,337.123077 321.553223,336.827698 
	C321.813232,336.792572 321.997894,337.012634 321.924133,337.283447 
	C321.623962,337.759705 321.378052,337.938202 321.112579,338.089813 
	C321.112579,338.089813 320.872772,337.869781 320.755798,337.756653 
z"/>
<path fill="#FECECA" opacity="1.000000" stroke="none" 
	d="
M404.846313,182.091370 
	C404.924347,182.353851 404.732178,182.646683 404.266052,182.963638 
	C404.186768,182.699097 404.381439,182.410416 404.846313,182.091370 
z"/>
<path fill="#D41F22" opacity="1.000000" stroke="none" 
	d="
M432.883728,161.904968 
	C432.883728,161.904984 432.903259,161.437744 432.919861,161.204437 
	C432.936493,160.971115 433.405670,160.875992 433.644836,160.869339 
	C433.884033,160.862686 434.043396,161.064453 433.929382,161.328354 
	C433.504791,161.696503 433.194275,161.800735 432.883728,161.904968 
z"/>
<path fill="#FED9D2" opacity="1.000000" stroke="none" 
	d="
M448.791626,148.788269 
	C448.895081,148.454590 449.105133,148.222382 449.548645,147.889862 
	C449.737549,147.749237 449.901031,147.907944 449.865509,148.204285 
	C449.584167,148.729980 449.298859,148.888107 448.974060,148.975037 
	C448.974060,148.975037 448.853577,148.849411 448.791626,148.788269 
z"/>
<path fill="#FED9D2" opacity="1.000000" stroke="none" 
	d="
M429.030853,480.834686 
	C428.961823,480.568634 429.177368,480.269806 429.676270,479.937744 
	C429.744873,480.203613 429.530151,480.502747 429.030853,480.834686 
z"/>
<path fill="#FD0101" opacity="1.000000" stroke="none" 
	d="
M432.902710,161.917694 
	C433.194275,161.800735 433.504791,161.696503 434.006775,161.431000 
	C436.077972,160.005432 437.957733,158.741104 439.778717,157.106934 
	C439.719940,156.737091 439.739746,156.763931 440.137512,156.841522 
	C444.722748,156.216705 447.499237,153.852646 448.874176,149.838058 
	C448.874176,149.838058 448.941803,149.957138 449.279938,149.969116 
	C453.190521,149.991913 455.440338,148.479645 455.711975,144.689316 
	C455.711975,144.689316 455.939117,144.740631 456.114899,144.739838 
	C456.493561,144.431854 456.696411,144.124664 456.899292,143.817459 
	C456.899292,143.817459 456.934875,143.932785 457.281952,143.955353 
	C461.195190,143.263809 464.501892,142.250381 464.798492,137.763977 
	C464.798492,137.763977 464.825409,137.751266 464.806366,137.743591 
	C466.494507,137.383179 468.201691,137.030457 471.032593,136.445557 
	C471.350952,140.472626 471.971985,144.683441 471.974426,148.894608 
	C472.028931,242.991592 472.027405,337.088593 471.972290,431.185577 
	C471.969971,435.142395 472.059387,439.348175 470.786316,442.974731 
	C469.806366,445.766357 466.843781,447.921631 464.592773,450.191284 
	C462.177185,452.626953 459.562958,454.865601 456.935120,457.509399 
	C454.068512,459.377319 449.720337,458.574219 448.918213,463.494080 
	C446.261749,465.648193 443.656250,467.427338 440.957703,469.532471 
	C436.309418,472.703491 431.510956,475.227936 427.249969,478.460754 
	C418.547943,485.063080 410.189331,492.116852 401.540375,498.791748 
	C400.341614,499.716919 398.297089,499.546204 396.475433,499.917145 
	C395.318024,501.671448 393.984558,503.692657 391.991730,505.829102 
	C390.218597,505.631897 389.104858,505.319427 387.991089,505.006958 
	C387.991058,503.937164 387.991028,502.867371 388.221649,501.252930 
	C388.298187,500.140228 388.144104,499.572266 387.990021,499.004272 
	C387.991974,456.315796 387.993958,413.627289 388.358246,370.406006 
	C388.496735,367.823608 388.272888,365.774048 388.049011,363.724457 
	C387.026123,364.132935 386.003204,364.541382 384.980286,364.949860 
	C353.308990,364.951904 321.637695,364.953949 289.467651,364.648804 
	C288.644073,363.894287 288.319244,363.446899 287.994385,362.999542 
	C288.578705,362.194702 289.162994,361.389862 289.899933,360.327606 
	C292.797028,358.746765 295.742767,357.723389 298.247772,356.042938 
	C305.434937,351.221527 312.461060,346.158386 319.495392,341.113464 
	C320.196045,340.611023 320.519562,339.582733 321.065369,338.444153 
	C321.378052,337.938202 321.623962,337.759705 322.013977,337.395508 
	C323.247009,336.911652 324.316406,336.586548 325.910400,336.017090 
	C326.709686,335.581940 326.885559,335.323792 326.962646,334.998322 
	C326.962646,334.998322 327.034912,334.566620 327.089539,334.355713 
	C329.170837,334.417358 331.197510,334.689941 333.757874,335.253021 
	C334.953064,335.902344 335.614532,336.261169 336.275970,336.619965 
	C336.393494,336.313049 336.510986,336.006104 336.628510,335.699188 
	C335.748871,335.469482 334.869263,335.239807 333.989655,335.010101 
	C331.525330,329.773682 336.716888,329.043335 339.071075,327.261963 
	C344.932312,322.826904 351.416229,319.225281 357.409149,314.951111 
	C365.255859,309.354797 372.187897,301.891449 380.778229,298.087494 
	C389.304688,294.311829 389.099579,288.841949 389.049286,281.796234 
	C388.867645,256.346252 389.222046,230.890244 388.807007,205.445755 
	C388.705688,199.236664 391.530090,195.824570 395.791779,192.461487 
	C399.652679,189.414703 403.263489,186.051056 407.084839,182.506882 
	C408.032837,181.688309 408.880585,181.189972 410.185608,180.398788 
	C414.888702,178.703979 418.239594,176.138672 420.624176,172.352463 
	C420.723480,172.194824 420.408081,171.776001 420.285919,171.478851 
	C420.285919,171.478851 420.423096,171.420090 420.873566,171.564850 
	C424.835297,172.634598 425.131836,170.501892 424.941620,167.906219 
	C424.941620,167.906219 424.985352,167.989349 425.276733,167.974716 
	C425.965698,167.519958 426.363251,167.079834 426.760803,166.639709 
	C426.760803,166.639709 426.903992,166.868103 427.196350,166.872025 
	C430.393005,166.404694 433.059875,165.675034 432.918365,161.888153 
	C432.918365,161.888153 432.921722,161.930405 432.902710,161.917694 
z"/>
<path fill="#F00A09" opacity="1.000000" stroke="none" 
	d="
M385.344604,365.016113 
	C386.003204,364.541382 387.026123,364.132935 388.049011,363.724457 
	C388.272888,365.774048 388.496735,367.823608 388.364441,369.937500 
	C387.241852,368.361969 386.475372,366.722168 385.344604,365.016113 
z"/>
<path fill="#F00A09" opacity="1.000000" stroke="none" 
	d="
M388.038940,505.353180 
	C389.104858,505.319427 390.218597,505.631897 391.680786,505.987976 
	C390.715088,505.920868 389.400940,505.810120 388.038940,505.353180 
z"/>
<path fill="#F00A09" opacity="1.000000" stroke="none" 
	d="
M287.759521,363.168701 
	C288.319244,363.446899 288.644073,363.894287 289.001617,364.628540 
	C288.531067,364.389618 288.027863,363.863770 287.759521,363.168701 
z"/>
<path fill="#F00A09" opacity="1.000000" stroke="none" 
	d="
M387.981232,499.336121 
	C388.144104,499.572266 388.298187,500.140228 388.224915,500.851776 
	C387.989166,500.552887 387.980804,500.110413 387.981232,499.336121 
z"/>
<path fill="#D41F22" opacity="1.000000" stroke="none" 
	d="
M419.976562,171.559845 
	C420.408081,171.776001 420.723480,172.194824 420.624176,172.352463 
	C418.239594,176.138672 414.888702,178.703979 410.350464,180.142868 
	C410.044434,180.009369 410.030884,179.838959 410.019958,179.412186 
	C413.237488,176.650848 416.452332,174.145859 419.976562,171.559845 
z"/>
<path fill="#D41F22" opacity="1.000000" stroke="none" 
	d="
M432.593536,161.969772 
	C433.059875,165.675034 430.393005,166.404694 427.102142,166.775635 
	C428.566620,165.134003 430.417664,163.592697 432.593536,161.969772 
z"/>
<path fill="#D41F22" opacity="1.000000" stroke="none" 
	d="
M424.619873,167.965607 
	C425.131836,170.501892 424.835297,172.634598 420.922424,171.508469 
	C421.779938,170.213211 423.039062,169.119110 424.619873,167.965607 
z"/>
<path fill="#D41F22" opacity="1.000000" stroke="none" 
	d="
M426.456573,166.670624 
	C426.363251,167.079834 425.965698,167.519958 425.237671,167.948654 
	C425.322235,167.525330 425.737305,167.113434 426.456573,166.670624 
z"/>
<path fill="#D41F22" opacity="1.000000" stroke="none" 
	d="
M464.466675,137.836838 
	C464.501892,142.250381 461.195190,143.263809 457.234436,143.918152 
	C459.271484,141.875504 461.703186,139.892593 464.466675,137.836838 
z"/>
<path fill="#D41F22" opacity="1.000000" stroke="none" 
	d="
M455.427979,144.721481 
	C455.440338,148.479645 453.190521,149.991913 449.223816,149.929901 
	C448.829529,149.878723 448.817230,149.413315 448.895630,149.194183 
	C449.298859,148.888107 449.584167,148.729980 449.947174,148.283752 
	C451.277252,147.241043 452.490143,146.415207 453.875824,145.324905 
	C454.413757,144.958176 454.778870,144.855911 455.427979,144.721481 
z"/>
<path fill="#D41F22" opacity="1.000000" stroke="none" 
	d="
M456.619263,143.845840 
	C456.696411,144.124664 456.493561,144.431854 455.998474,144.738556 
	C455.917267,144.450104 456.128265,144.162155 456.619263,143.845840 
z"/>
<path fill="#D41F22" opacity="1.000000" stroke="none" 
	d="
M448.540436,149.912964 
	C447.499237,153.852646 444.722748,156.216705 440.145020,156.831787 
	C442.572083,154.492264 445.389404,152.240067 448.540436,149.912964 
z"/>
<path fill="#DE171A" opacity="1.000000" stroke="none" 
	d="
M326.751373,335.102539 
	C326.885559,335.323792 326.709686,335.581940 326.215637,335.866302 
	C326.094452,335.648773 326.275726,335.397736 326.751373,335.102539 
z"/>
<path fill="#DE171A" opacity="1.000000" stroke="none" 
	d="
M333.994537,335.005341 
	C334.869263,335.239807 335.748871,335.469482 336.628510,335.699188 
	C336.510986,336.006104 336.393494,336.313049 336.275970,336.619965 
	C335.614532,336.261169 334.953064,335.902344 334.148987,335.267059 
	C334.006348,334.990570 333.999420,335.000580 333.994537,335.005341 
z"/>
</svg>